<mxfile host="app.diagrams.net" modified="2022-07-12T08:26:36.024Z" agent="5.0 (X11; Linux x86_64) AppleWebKit/537.36 (KHTML, like Gecko) Chrome/102.0.0.0 Safari/537.36" etag="ORguS3OCFWawdVcR6NxG" version="20.0.4" type="github">
  <diagram id="Mpy_rAd_3IN7cKNMjPZA" name="Page-1">
    <mxGraphModel dx="1421" dy="796" grid="1" gridSize="10" guides="1" tooltips="1" connect="1" arrows="1" fold="1" page="1" pageScale="1" pageWidth="850" pageHeight="1100" math="0" shadow="0">
      <root>
        <mxCell id="0" />
        <mxCell id="1" parent="0" />
        <mxCell id="m7JIK4brSjCZJ4KhSL0T-1" value="begin" style="ellipse;whiteSpace=wrap;html=1;" vertex="1" parent="1">
          <mxGeometry x="320" y="160" width="100" height="50" as="geometry" />
        </mxCell>
        <mxCell id="m7JIK4brSjCZJ4KhSL0T-2" value="k&lt;br&gt;n" style="shape=parallelogram;perimeter=parallelogramPerimeter;whiteSpace=wrap;html=1;fixedSize=1;" vertex="1" parent="1">
          <mxGeometry x="310" y="250" width="120" height="60" as="geometry" />
        </mxCell>
        <mxCell id="m7JIK4brSjCZJ4KhSL0T-3" value="n chu so" style="triangle;whiteSpace=wrap;html=1;" vertex="1" parent="1">
          <mxGeometry x="330" y="430" width="60" height="80" as="geometry" />
        </mxCell>
        <mxCell id="m7JIK4brSjCZJ4KhSL0T-4" value="" style="endArrow=classic;html=1;rounded=0;exitX=0.45;exitY=1;exitDx=0;exitDy=0;exitPerimeter=0;" edge="1" parent="1" source="m7JIK4brSjCZJ4KhSL0T-2" target="m7JIK4brSjCZJ4KhSL0T-3">
          <mxGeometry width="50" height="50" relative="1" as="geometry">
            <mxPoint x="400" y="430" as="sourcePoint" />
            <mxPoint x="450" y="380" as="targetPoint" />
          </mxGeometry>
        </mxCell>
        <mxCell id="m7JIK4brSjCZJ4KhSL0T-31" value="true" style="edgeLabel;html=1;align=center;verticalAlign=middle;resizable=0;points=[];" vertex="1" connectable="0" parent="m7JIK4brSjCZJ4KhSL0T-4">
          <mxGeometry x="0.4101" y="2" relative="1" as="geometry">
            <mxPoint x="16" y="11" as="offset" />
          </mxGeometry>
        </mxCell>
        <mxCell id="m7JIK4brSjCZJ4KhSL0T-5" value="treturn" style="ellipse;whiteSpace=wrap;html=1;" vertex="1" parent="1">
          <mxGeometry x="90" y="400" width="120" height="80" as="geometry" />
        </mxCell>
        <mxCell id="m7JIK4brSjCZJ4KhSL0T-6" value="" style="endArrow=classic;html=1;rounded=0;exitX=0;exitY=0.5;exitDx=0;exitDy=0;entryX=1.033;entryY=0.375;entryDx=0;entryDy=0;entryPerimeter=0;" edge="1" parent="1" source="m7JIK4brSjCZJ4KhSL0T-3" target="m7JIK4brSjCZJ4KhSL0T-5">
          <mxGeometry width="50" height="50" relative="1" as="geometry">
            <mxPoint x="400" y="430" as="sourcePoint" />
            <mxPoint x="450" y="380" as="targetPoint" />
            <Array as="points">
              <mxPoint x="210" y="440" />
            </Array>
          </mxGeometry>
        </mxCell>
        <mxCell id="m7JIK4brSjCZJ4KhSL0T-7" value="" style="endArrow=classic;html=1;rounded=0;exitX=0.5;exitY=1;exitDx=0;exitDy=0;" edge="1" parent="1" source="m7JIK4brSjCZJ4KhSL0T-3">
          <mxGeometry width="50" height="50" relative="1" as="geometry">
            <mxPoint x="400" y="430" as="sourcePoint" />
            <mxPoint x="360" y="550" as="targetPoint" />
          </mxGeometry>
        </mxCell>
        <mxCell id="m7JIK4brSjCZJ4KhSL0T-8" value="nguyen to" style="triangle;whiteSpace=wrap;html=1;" vertex="1" parent="1">
          <mxGeometry x="330" y="530" width="70" height="80" as="geometry" />
        </mxCell>
        <mxCell id="m7JIK4brSjCZJ4KhSL0T-9" value="" style="endArrow=classic;html=1;rounded=0;exitX=0;exitY=0.5;exitDx=0;exitDy=0;entryX=1;entryY=1;entryDx=0;entryDy=0;" edge="1" parent="1" source="m7JIK4brSjCZJ4KhSL0T-8" target="m7JIK4brSjCZJ4KhSL0T-5">
          <mxGeometry width="50" height="50" relative="1" as="geometry">
            <mxPoint x="400" y="430" as="sourcePoint" />
            <mxPoint x="450" y="380" as="targetPoint" />
          </mxGeometry>
        </mxCell>
        <mxCell id="m7JIK4brSjCZJ4KhSL0T-10" value="" style="endArrow=classic;html=1;rounded=0;exitX=0.5;exitY=1;exitDx=0;exitDy=0;startArrow=none;entryX=0.186;entryY=0.925;entryDx=0;entryDy=0;entryPerimeter=0;" edge="1" parent="1" source="m7JIK4brSjCZJ4KhSL0T-12" target="m7JIK4brSjCZJ4KhSL0T-8">
          <mxGeometry width="50" height="50" relative="1" as="geometry">
            <mxPoint x="400" y="430" as="sourcePoint" />
            <mxPoint x="360" y="670" as="targetPoint" />
          </mxGeometry>
        </mxCell>
        <mxCell id="m7JIK4brSjCZJ4KhSL0T-12" value="sum" style="shape=parallelogram;perimeter=parallelogramPerimeter;whiteSpace=wrap;html=1;fixedSize=1;" vertex="1" parent="1">
          <mxGeometry x="300" y="710" width="120" height="60" as="geometry" />
        </mxCell>
        <mxCell id="m7JIK4brSjCZJ4KhSL0T-13" value="" style="endArrow=none;html=1;rounded=0;exitX=0.5;exitY=1;exitDx=0;exitDy=0;" edge="1" parent="1" source="m7JIK4brSjCZJ4KhSL0T-8" target="m7JIK4brSjCZJ4KhSL0T-12">
          <mxGeometry width="50" height="50" relative="1" as="geometry">
            <mxPoint x="365" y="590" as="sourcePoint" />
            <mxPoint x="360" y="670" as="targetPoint" />
          </mxGeometry>
        </mxCell>
        <mxCell id="m7JIK4brSjCZJ4KhSL0T-24" value="true" style="edgeLabel;html=1;align=center;verticalAlign=middle;resizable=0;points=[];" vertex="1" connectable="0" parent="m7JIK4brSjCZJ4KhSL0T-13">
          <mxGeometry x="-0.3668" relative="1" as="geometry">
            <mxPoint x="6" as="offset" />
          </mxGeometry>
        </mxCell>
        <mxCell id="m7JIK4brSjCZJ4KhSL0T-17" value="&lt;br&gt;tem = k%10&lt;br&gt;k = k/ 10" style="shape=parallelogram;perimeter=parallelogramPerimeter;whiteSpace=wrap;html=1;fixedSize=1;" vertex="1" parent="1">
          <mxGeometry x="10" y="610" width="120" height="60" as="geometry" />
        </mxCell>
        <mxCell id="m7JIK4brSjCZJ4KhSL0T-18" value="k &amp;gt; 0" style="triangle;whiteSpace=wrap;html=1;" vertex="1" parent="1">
          <mxGeometry x="220" y="660" width="60" height="80" as="geometry" />
        </mxCell>
        <mxCell id="m7JIK4brSjCZJ4KhSL0T-19" value="" style="endArrow=classic;html=1;rounded=0;exitX=0;exitY=0.95;exitDx=0;exitDy=0;exitPerimeter=0;" edge="1" parent="1" source="m7JIK4brSjCZJ4KhSL0T-8" target="m7JIK4brSjCZJ4KhSL0T-18">
          <mxGeometry width="50" height="50" relative="1" as="geometry">
            <mxPoint x="400" y="400" as="sourcePoint" />
            <mxPoint x="450" y="350" as="targetPoint" />
          </mxGeometry>
        </mxCell>
        <mxCell id="m7JIK4brSjCZJ4KhSL0T-20" value="" style="endArrow=classic;html=1;rounded=0;exitX=0;exitY=0.5;exitDx=0;exitDy=0;entryX=1;entryY=0.75;entryDx=0;entryDy=0;" edge="1" parent="1" source="m7JIK4brSjCZJ4KhSL0T-18" target="m7JIK4brSjCZJ4KhSL0T-17">
          <mxGeometry width="50" height="50" relative="1" as="geometry">
            <mxPoint x="400" y="400" as="sourcePoint" />
            <mxPoint x="450" y="350" as="targetPoint" />
          </mxGeometry>
        </mxCell>
        <mxCell id="m7JIK4brSjCZJ4KhSL0T-21" value="" style="endArrow=classic;html=1;rounded=0;exitX=1;exitY=0;exitDx=0;exitDy=0;entryX=-0.029;entryY=0.613;entryDx=0;entryDy=0;entryPerimeter=0;" edge="1" parent="1" source="m7JIK4brSjCZJ4KhSL0T-17" target="m7JIK4brSjCZJ4KhSL0T-8">
          <mxGeometry width="50" height="50" relative="1" as="geometry">
            <mxPoint x="400" y="400" as="sourcePoint" />
            <mxPoint x="450" y="350" as="targetPoint" />
          </mxGeometry>
        </mxCell>
        <mxCell id="m7JIK4brSjCZJ4KhSL0T-22" value="false" style="text;html=1;align=center;verticalAlign=middle;resizable=0;points=[];autosize=1;strokeColor=none;fillColor=none;" vertex="1" parent="1">
          <mxGeometry x="245" y="405" width="50" height="30" as="geometry" />
        </mxCell>
        <mxCell id="m7JIK4brSjCZJ4KhSL0T-23" value="true" style="text;html=1;align=center;verticalAlign=middle;resizable=0;points=[];autosize=1;strokeColor=none;fillColor=none;" vertex="1" parent="1">
          <mxGeometry x="350" y="480" width="40" height="30" as="geometry" />
        </mxCell>
        <mxCell id="m7JIK4brSjCZJ4KhSL0T-25" value="false" style="text;html=1;align=center;verticalAlign=middle;resizable=0;points=[];autosize=1;strokeColor=none;fillColor=none;" vertex="1" parent="1">
          <mxGeometry x="245" y="495" width="50" height="30" as="geometry" />
        </mxCell>
        <mxCell id="m7JIK4brSjCZJ4KhSL0T-26" value="true" style="text;html=1;align=center;verticalAlign=middle;resizable=0;points=[];autosize=1;strokeColor=none;fillColor=none;" vertex="1" parent="1">
          <mxGeometry x="270" y="615" width="40" height="30" as="geometry" />
        </mxCell>
        <mxCell id="m7JIK4brSjCZJ4KhSL0T-27" value="" style="endArrow=classic;html=1;rounded=0;exitX=0.44;exitY=0.98;exitDx=0;exitDy=0;exitPerimeter=0;entryX=0.5;entryY=0;entryDx=0;entryDy=0;" edge="1" parent="1" source="m7JIK4brSjCZJ4KhSL0T-1" target="m7JIK4brSjCZJ4KhSL0T-2">
          <mxGeometry width="50" height="50" relative="1" as="geometry">
            <mxPoint x="400" y="400" as="sourcePoint" />
            <mxPoint x="450" y="350" as="targetPoint" />
          </mxGeometry>
        </mxCell>
        <mxCell id="m7JIK4brSjCZJ4KhSL0T-28" value="k &amp;lt; 2&lt;br&gt;n !=0" style="triangle;whiteSpace=wrap;html=1;" vertex="1" parent="1">
          <mxGeometry x="335" y="325" width="60" height="80" as="geometry" />
        </mxCell>
        <mxCell id="m7JIK4brSjCZJ4KhSL0T-29" value="" style="endArrow=classic;html=1;rounded=0;exitX=0;exitY=0.5;exitDx=0;exitDy=0;entryX=1;entryY=0;entryDx=0;entryDy=0;" edge="1" parent="1" source="m7JIK4brSjCZJ4KhSL0T-28" target="m7JIK4brSjCZJ4KhSL0T-5">
          <mxGeometry width="50" height="50" relative="1" as="geometry">
            <mxPoint x="400" y="400" as="sourcePoint" />
            <mxPoint x="450" y="350" as="targetPoint" />
          </mxGeometry>
        </mxCell>
        <mxCell id="m7JIK4brSjCZJ4KhSL0T-30" value="false" style="text;html=1;align=center;verticalAlign=middle;resizable=0;points=[];autosize=1;strokeColor=none;fillColor=none;" vertex="1" parent="1">
          <mxGeometry x="245" y="355" width="50" height="30" as="geometry" />
        </mxCell>
      </root>
    </mxGraphModel>
  </diagram>
</mxfile>
